<svg width="24" height="25" viewBox="0 0 24 25" fill="none" xmlns="http://www.w3.org/2000/svg">
<path fill-rule="evenodd" clip-rule="evenodd" d="M15.7935 1.8334C16.2075 1.8334 16.5435 2.1694 16.5435 2.5834L16.544 3.43122C18.0041 3.53132 19.2167 4.03145 20.075 4.8915C21.012 5.8325 21.505 7.1855 21.5 8.8085V17.9315C21.5 21.2635 19.384 23.3335 15.979 23.3335H7.521C4.116 23.3335 2 21.2345 2 17.8555V8.8065C2 5.6637 3.88706 3.64634 6.96469 3.43156L6.9653 2.5834C6.9653 2.1694 7.3013 1.8334 7.7153 1.8334C8.1293 1.8334 8.4653 2.1694 8.4653 2.5834L8.465 3.4124H15.043L15.0435 2.5834C15.0435 2.1694 15.3795 1.8334 15.7935 1.8334ZM20 10.7374H3.5V17.8555C3.5 20.4215 4.928 21.8335 7.521 21.8335H15.979C18.572 21.8335 20 20.4475 20 17.9315L20 10.7374ZM16.2012 17.0297C16.6152 17.0297 16.9512 17.3657 16.9512 17.7797C16.9512 18.1937 16.6152 18.5297 16.2012 18.5297C15.7872 18.5297 15.4472 18.1937 15.4472 17.7797C15.4472 17.3657 15.7782 17.0297 16.1922 17.0297H16.2012ZM11.7637 17.0297C12.1777 17.0297 12.5137 17.3657 12.5137 17.7797C12.5137 18.1937 12.1777 18.5297 11.7637 18.5297C11.3497 18.5297 11.0097 18.1937 11.0097 17.7797C11.0097 17.3657 11.3407 17.0297 11.7547 17.0297H11.7637ZM7.3169 17.0297C7.7309 17.0297 8.0669 17.3657 8.0669 17.7797C8.0669 18.1937 7.7309 18.5297 7.3169 18.5297C6.9029 18.5297 6.5619 18.1937 6.5619 17.7797C6.5619 17.3657 6.8939 17.0297 7.3079 17.0297H7.3169ZM16.2012 13.143C16.6152 13.143 16.9512 13.479 16.9512 13.893C16.9512 14.307 16.6152 14.643 16.2012 14.643C15.7872 14.643 15.4472 14.307 15.4472 13.893C15.4472 13.479 15.7782 13.143 16.1922 13.143H16.2012ZM11.7637 13.143C12.1777 13.143 12.5137 13.479 12.5137 13.893C12.5137 14.307 12.1777 14.643 11.7637 14.643C11.3497 14.643 11.0097 14.307 11.0097 13.893C11.0097 13.479 11.3407 13.143 11.7547 13.143H11.7637ZM7.3169 13.143C7.7309 13.143 8.0669 13.479 8.0669 13.893C8.0669 14.307 7.7309 14.643 7.3169 14.643C6.9029 14.643 6.5619 14.307 6.5619 13.893C6.5619 13.479 6.8939 13.143 7.3079 13.143H7.3169ZM15.043 4.9124H8.465L8.4653 5.8744C8.4653 6.2884 8.1293 6.6244 7.7153 6.6244C7.3013 6.6244 6.9653 6.2884 6.9653 5.8744L6.96477 4.93511C4.72454 5.1233 3.5 6.48126 3.5 8.8065V9.2374H20L20 8.8065C20.004 7.5715 19.672 6.6115 19.013 5.9515C18.4345 5.37131 17.5889 5.02481 16.5444 4.93559L16.5435 5.8744C16.5435 6.2884 16.2075 6.6244 15.7935 6.6244C15.3795 6.6244 15.0435 6.2884 15.0435 5.8744L15.043 4.9124Z" fill="#8D8D8D"/>
</svg>
