<svg width="24" height="25" viewBox="0 0 24 25" fill="none" xmlns="http://www.w3.org/2000/svg">
<path fill-rule="evenodd" clip-rule="evenodd" d="M12 2.8333C17.514 2.8333 22 7.3193 22 12.8333C22 18.3473 17.514 22.8333 12 22.8333C6.486 22.8333 2 18.3473 2 12.8333C2 7.3193 6.486 2.8333 12 2.8333ZM12 4.3333C7.313 4.3333 3.5 8.1463 3.5 12.8333C3.5 17.5203 7.313 21.3333 12 21.3333C16.687 21.3333 20.5 17.5203 20.5 12.8333C20.5 8.1463 16.687 4.3333 12 4.3333ZM11.6612 7.9287C12.0762 7.9287 12.4112 8.2647 12.4112 8.6787V13.1007L15.8162 15.1307C16.1712 15.3437 16.2882 15.8037 16.0762 16.1597C15.9352 16.3947 15.6862 16.5257 15.4312 16.5257C15.3002 16.5257 15.1682 16.4917 15.0472 16.4207L11.2772 14.1717C11.0512 14.0357 10.9112 13.7907 10.9112 13.5267V8.6787C10.9112 8.2647 11.2472 7.9287 11.6612 7.9287Z" fill="#8D8D8D"/>
</svg>
